<?xml version="1.0" encoding="iso-8859-1"?><!DOCTYPE svg PUBLIC "-//W3C//DTD SVG 1.1//EN" "http://www.w3.org/Graphics/SVG/1.1/DTD/svg11.dtd"><svg version="1.1" xmlns="http://www.w3.org/2000/svg" xmlns:xlink="http://www.w3.org/1999/xlink" x="0px" y="0px" viewBox="0 0 330 330" style="enable-background:new 0 0 330 330;" xml:space="preserve"><g><path style="fill:rgba(255,255,255,.5)" d="M35,270h45v45c0,8.284,6.716,15,15,15h200c8.284,0,15-6.716,15-15V75c0-8.284-6.716-15-15-15h-45V15		c0-8.284-6.716-15-15-15H35c-8.284,0-15,6.716-15,15v240C20,263.284,26.716,270,35,270zM280,300H110V90h170V300z M50,30h170v30H95c-8.284,0-15,6.716-15,15v165H50V30z"/><path style="fill:rgba(255,255,255,.5)" d="M155,120c-8.284,0-15,6.716-15,15s6.716,15,15,15h80c8.284,0,15-6.716,15-15s-6.716-15-15-15H155z"/><path style="fill:rgba(255,255,255,.5)" d="M235,180h-80c-8.284,0-15,6.716-15,15s6.716,15,15,15h80c8.284,0,15-6.716,15-15S243.284,180,235,180z"/><path style="fill:rgba(255,255,255,.5)" d="M235,240h-80c-8.284,0-15,6.716-15,15c0,8.284,6.716,15,15,15h80c8.284,0,15-6.716,15-15C250,246.716,243.284,240,235,240z"/></g></svg>