<?xml version="1.0" encoding="UTF-8" standalone="no"?>
<svg
   xmlns:dc="http://purl.org/dc/elements/1.1/"
   xmlns:cc="http://creativecommons.org/ns#"
   xmlns:rdf="http://www.w3.org/1999/02/22-rdf-syntax-ns#"
   xmlns:svg="http://www.w3.org/2000/svg"
   xmlns="http://www.w3.org/2000/svg"
   xmlns:sodipodi="http://sodipodi.sourceforge.net/DTD/sodipodi-0.dtd"
   xmlns:inkscape="http://www.inkscape.org/namespaces/inkscape"
   id="svg13"
   width="1920"
   viewBox="0 0 1920 1280"
   version="1.1"
   height="1280"
   sodipodi:docname="splash-landscape.svg"
   inkscape:export-filename="/home/chill/Projects/current/samotari/paynoway/assets/android/icon.png"
   inkscape:export-xdpi="300.16"
   inkscape:export-ydpi="300.16"
   inkscape:version="0.92.3 (2405546, 2018-03-11)">
  <sodipodi:namedview
     pagecolor="#ffffff"
     bordercolor="#666666"
     borderopacity="1"
     objecttolerance="10"
     gridtolerance="10"
     guidetolerance="10"
     inkscape:pageopacity="0"
     inkscape:pageshadow="2"
     inkscape:window-width="1920"
     inkscape:window-height="1002"
     id="namedview12"
     showgrid="false"
     inkscape:zoom="0.27812867"
     inkscape:cx="353.08864"
     inkscape:cy="990.94835"
     inkscape:window-x="0"
     inkscape:window-y="41"
     inkscape:window-maximized="1"
     inkscape:current-layer="svg13" />
  <metadata
     id="metadata17">
    <rdf:RDF>
      <cc:Work
         rdf:about="">
        <dc:format>image/svg+xml</dc:format>
        <dc:type
           rdf:resource="http://purl.org/dc/dcmitype/StillImage" />
        <dc:title></dc:title>
      </cc:Work>
    </rdf:RDF>
  </metadata>
  <desc
     id="desc4" />
  <defs
     id="defs6" />
  <rect
     style="opacity:1;fill:#222222;fill-opacity:1;stroke:none;stroke-width:14.11719799;stroke-miterlimit:4;stroke-dasharray:none;stroke-opacity:1"
     id="rect868"
     width="1920"
     height="1280"
     x="0"
     y="0" />
  <g
     id="g866"
     transform="matrix(2.4,0,0,2.4,600,148.5842)">
    <path
       style="fill:#ff9900;fill-rule:evenodd;stroke:none;stroke-width:5"
       id="Oval"
       d="M 150,300 C 232.84271,300 300,232.84271 300,150 300,67.15728 232.84271,0 150,0 67.15728,0 0,67.15728 0,150 0,232.84271 67.15728,300 150,300 Z"
       inkscape:connector-curvature="0" />
    <path
       style="fill:#ffffff;fill-rule:evenodd;stroke:none;stroke-width:2.76016808"
       id="Shape"
       d="m 181.79615,146.58896 c 1.62297,-10.84873 -6.63715,-16.68075 -17.93175,-20.57131 l 3.6638,-14.69598 -8.9455,-2.22937 -3.56697,14.3087 c -2.35167,-0.586 -4.76703,-1.13888 -7.1671,-1.68668 l 3.59247,-14.40297 -8.94039,-2.22937 -3.66636,14.69089 c -1.94655,-0.44332 -3.85744,-0.88155 -5.71228,-1.34272 l 0.0105,-0.0456 -12.33668,-3.08035 -2.37969,9.55443 c 0,0 6.63714,1.52105 6.497,1.61533 3.62304,0.90448 4.27784,3.302 4.16828,5.2027 l -4.17337,16.74191 c 0.24972,0.0637 0.57326,0.15538 0.92996,0.29807 -0.29812,-0.0739 -0.61659,-0.15539 -0.94524,-0.23439 l -5.84986,23.45293 c -0.44332,1.10068 -1.56694,2.75167 -4.09948,2.1249 0.0892,0.12993 -6.50212,-1.62298 -6.50212,-1.62298 L 104,182.67683 l 11.64111,2.90199 c 2.16567,0.54271 4.28803,1.11086 6.37726,1.64591 l -3.70203,14.86414 8.93531,2.22936 3.66634,-14.70616 c 2.44084,0.66243 4.81034,1.27393 7.12888,1.84974 l -3.65361,14.63737 8.94549,2.22937 3.70203,-14.83612 c 15.25397,2.88672 26.72436,1.72236 31.55253,-12.07423 3.89057,-11.10862 -0.19366,-17.51646 -8.21936,-21.69493 5.84478,-1.34781 10.24745,-5.19251 11.42201,-13.13415 z m -20.43884,28.66073 c -2.7644,11.10862 -21.46815,5.10334 -27.53204,3.59757 l 4.91226,-19.69231 c 6.06388,1.51341 25.50904,4.50968 22.61978,16.09474 z m 2.76697,-28.82125 c -2.52236,10.10477 -18.08972,4.97085 -23.13955,3.71221 l 4.45365,-17.86039 c 5.04981,1.25862 21.31274,3.60775 18.6859,14.14818 z"
       inkscape:connector-curvature="0" />
    <g
       id="g4559"
       transform="matrix(4.3636363,0,0,4.3636363,27.454544,7.0151555)"
       style="opacity:0.5;fill:#ffffff">
      <circle
         cx="11.416667"
         cy="18.583334"
         r="6.25"
         style="fill:#ffffff;stroke-width:4.16666651"
         id="circle4" />
      <path
         d="m 48.916667,16.5 h -12.5 c -1.25,0 -2.083333,0.833334 -2.083333,2.083334 0,1.25 0.833333,2.083333 2.083333,2.083333 h 12.5 c 1.25,0 2.083334,-0.833333 2.083334,-2.083333 0,-1.25 -0.833334,-2.083334 -2.083334,-2.083334 z"
         id="path6"
         style="fill:#ffffff;stroke-width:4.16666651"
         inkscape:connector-curvature="0" />
      <path
         d="m 26,54.000001 v 4.166666 c 13.750001,0 25.000001,-11.25 25.000001,-25 h -4.166667 c 0,11.666667 -9.166667,20.833334 -20.833334,20.833334 z"
         id="path8"
         style="fill:#ffffff;stroke-width:4.16666651"
         inkscape:connector-curvature="0" />
    </g>
  </g>
  <text
     xml:space="preserve"
     style="font-style:normal;font-weight:normal;font-size:154.66667175px;line-height:1.25;font-family:sans-serif;letter-spacing:0px;word-spacing:0px;fill:#ff9900;fill-opacity:1;stroke:none"
     x="575.14581"
     y="1103.3639"
     id="text891"><tspan
       sodipodi:role="line"
       id="tspan889"
       x="575.14581"
       y="1103.3639"
       style="font-style:normal;font-variant:normal;font-weight:normal;font-stretch:normal;font-family:'Comic Sans MS';-inkscape-font-specification:'Comic Sans MS';fill:#ff9900;fill-opacity:1">PayNoWay</tspan></text>
</svg>
