<?xml version="1.0" encoding="UTF-8" standalone="no"?>
<svg
   xmlns:dc="http://purl.org/dc/elements/1.1/"
   xmlns:cc="http://creativecommons.org/ns#"
   xmlns:rdf="http://www.w3.org/1999/02/22-rdf-syntax-ns#"
   xmlns:svg="http://www.w3.org/2000/svg"
   xmlns="http://www.w3.org/2000/svg"
   xmlns:sodipodi="http://sodipodi.sourceforge.net/DTD/sodipodi-0.dtd"
   xmlns:inkscape="http://www.inkscape.org/namespaces/inkscape"
   height="393.93069"
   version="1.1"
   viewBox="0 0 300 393.93069"
   width="300"
   id="svg13"
   sodipodi:docname="app-loading.svg"
   inkscape:version="0.92.3 (2405546, 2018-03-11)">
  <metadata
     id="metadata17">
    <rdf:RDF>
      <cc:Work
         rdf:about="">
        <dc:format>image/svg+xml</dc:format>
        <dc:type
           rdf:resource="http://purl.org/dc/dcmitype/StillImage" />
        <dc:title></dc:title>
      </cc:Work>
    </rdf:RDF>
  </metadata>
  <sodipodi:namedview
     pagecolor="#ffffff"
     bordercolor="#666666"
     borderopacity="1"
     objecttolerance="10"
     gridtolerance="10"
     guidetolerance="10"
     inkscape:pageopacity="0"
     inkscape:pageshadow="2"
     inkscape:window-width="1920"
     inkscape:window-height="1000"
     id="namedview15"
     showgrid="false"
     inkscape:zoom="1.6083333"
     inkscape:cx="171.93986"
     inkscape:cy="122.92214"
     inkscape:window-x="0"
     inkscape:window-y="41"
     inkscape:window-maximized="1"
     inkscape:current-layer="svg13" />
  <desc
     id="desc4" />
  <defs
     id="defs6" />
  <path
     style="fill:#ff9900;fill-rule:evenodd;stroke:none;stroke-width:5"
     inkscape:connector-curvature="0"
     id="Oval"
     d="M 150,300 C 232.84271,300 300,232.84271 300,150 300,67.15728 232.84271,0 150,0 67.15728,0 0,67.15728 0,150 0,232.84271 67.15728,300 150,300 Z" />
  <path
     style="fill:#ffffff;fill-rule:evenodd;stroke:none;stroke-width:2.76016808"
     inkscape:connector-curvature="0"
     id="Shape"
     d="m 181.79615,146.58896 c 1.62297,-10.84873 -6.63715,-16.68075 -17.93175,-20.57131 l 3.6638,-14.69598 -8.9455,-2.22937 -3.56697,14.3087 c -2.35167,-0.586 -4.76703,-1.13888 -7.1671,-1.68668 l 3.59247,-14.40297 -8.94039,-2.22937 -3.66636,14.69089 c -1.94655,-0.44332 -3.85744,-0.88155 -5.71228,-1.34272 l 0.0105,-0.0456 -12.33668,-3.08035 -2.37969,9.55443 c 0,0 6.63714,1.52105 6.497,1.61533 3.62304,0.90448 4.27784,3.302 4.16828,5.2027 l -4.17337,16.74191 c 0.24972,0.0637 0.57326,0.15538 0.92996,0.29807 -0.29812,-0.0739 -0.61659,-0.15539 -0.94524,-0.23439 l -5.84986,23.45293 c -0.44332,1.10068 -1.56694,2.75167 -4.09948,2.1249 0.0892,0.12993 -6.50212,-1.62298 -6.50212,-1.62298 L 104,182.67683 l 11.64111,2.90199 c 2.16567,0.54271 4.28803,1.11086 6.37726,1.64591 l -3.70203,14.86414 8.93531,2.22936 3.66634,-14.70616 c 2.44084,0.66243 4.81034,1.27393 7.12888,1.84974 l -3.65361,14.63737 8.94549,2.22937 3.70203,-14.83612 c 15.25397,2.88672 26.72436,1.72236 31.55253,-12.07423 3.89057,-11.10862 -0.19366,-17.51646 -8.21936,-21.69493 5.84478,-1.34781 10.24745,-5.19251 11.42201,-13.13415 z m -20.43884,28.66073 c -2.7644,11.10862 -21.46815,5.10334 -27.53204,3.59757 l 4.91226,-19.69231 c 6.06388,1.51341 25.50904,4.50968 22.61978,16.09474 z m 2.76697,-28.82125 c -2.52236,10.10477 -18.08972,4.97085 -23.13955,3.71221 l 4.45365,-17.86039 c 5.04981,1.25862 21.31274,3.60775 18.6859,14.14818 z" />
  <g
     id="g4559"
     transform="matrix(4.3636363,0,0,4.3636363,27.454544,7.0151555)"
     style="opacity:0.5;fill:#ffffff">
    <circle
       cx="11.416667"
       cy="18.583334"
       r="6.25"
       style="fill:#ffffff;stroke-width:4.16666651"
       id="circle4" />
    <path
       d="m 48.916667,16.5 h -12.5 c -1.25,0 -2.083333,0.833334 -2.083333,2.083334 0,1.25 0.833333,2.083333 2.083333,2.083333 h 12.5 c 1.25,0 2.083334,-0.833333 2.083334,-2.083333 0,-1.25 -0.833334,-2.083334 -2.083334,-2.083334 z"
       id="path6"
       style="fill:#ffffff;stroke-width:4.16666651"
       inkscape:connector-curvature="0" />
    <path
       d="m 26,54.000001 v 4.166666 c 13.750001,0 25.000001,-11.25 25.000001,-25 h -4.166667 c 0,11.666667 -9.166667,20.833334 -20.833334,20.833334 z"
       id="path8"
       style="fill:#ffffff;stroke-width:4.16666651"
       inkscape:connector-curvature="0" />
  </g>
  <g
     aria-label="PayNoWay"
     style="font-style:normal;font-weight:normal;font-size:200px;line-height:1.25;font-family:sans-serif;letter-spacing:0px;word-spacing:0px;opacity:0.5;fill:#ff9900;fill-opacity:1;stroke:none;stroke-width:5"
     id="text4613">
    <path
       d="m 28.046871,363.56611 q -0.729167,0 -3.177083,-0.33854 -0.208334,3.93229 -0.208334,13.77604 0,1.04167 -0.677083,1.77083 -0.677083,0.70313 -1.692709,0.70313 -1.041666,0 -1.71875,-0.70313 -0.677083,-0.72916 -0.677083,-1.77083 v -7.65625 q 0,-3.82812 0.46875,-10.78125 0.520833,-7.52604 0.572917,-10.78125 v -3.59375 q 0,-2.57813 0.3125,-3.75 0.598958,-2.29167 2.552083,-1.97917 0.833334,-0.26041 2.369792,-0.39062 1.536458,-0.13021 3.776042,-0.13021 4.765625,0 8.932292,3.25521 4.583333,3.59375 4.583333,8.64583 0,6.45834 -4.895833,10.28646 -4.375,3.4375 -10.520834,3.4375 z m 1.302083,-20.67708 q -1.145833,0 -2.057291,0.0521 -0.885417,0.0521 -1.510417,0.15625 l -0.05208,4.79167 -0.546875,10.36458 2.864583,0.33854 q 4.375,0 7.369792,-2.21354 3.28125,-2.42187 3.28125,-6.53646 0,-2.91667 -3.125,-5.02604 -2.890625,-1.92708 -6.223959,-1.92708 z"
       style="font-style:normal;font-variant:normal;font-weight:normal;font-stretch:normal;font-size:53.33333588px;font-family:'Comic Sans MS';-inkscape-font-specification:'Comic Sans MS';fill:#ff9900;fill-opacity:1;stroke-width:5"
       id="path4744" />
    <path
       d="m 69.062499,380.57132 q -0.494792,0 -1.796875,-1.14583 -1.171876,-1.06771 -1.744792,-1.90105 -2.5,1.35417 -4.401042,2.03125 -1.901042,0.70313 -3.177084,0.70313 -6.09375,0 -8.880208,-3.4375 -2.630209,-3.22917 -2.630209,-9.89583 0,-6.30209 4.322917,-10.78125 4.348959,-4.47917 10.364584,-4.47917 2.265625,0 5.078125,1.17187 3.541667,1.45834 3.541667,3.51563 0,0.70312 -0.520833,1.25 -0.260417,0.98958 -0.416667,3.25521 -0.130208,2.26562 -0.15625,5.80729 -0.02604,3.22917 0.442708,5.10417 0.260417,1.14583 1.640625,4.58333 0.182292,0.46875 0.598959,1.38021 l 0.15625,0.44271 q 0,1.04166 -0.729167,1.71875 -0.729167,0.67708 -1.692708,0.67708 z m -5.416667,-18.09896 q 0,-1.11979 0.130208,-2.42187 0.15625,-1.32813 0.442708,-2.8125 -0.963541,-0.4948 -1.666666,-0.72917 -0.677084,-0.23438 -1.09375,-0.23438 -4.036459,0 -6.979167,3.3073 -2.916667,3.28125 -2.916667,7.57812 0,4.27083 1.510417,6.40625 1.510416,2.13542 4.53125,2.13542 2.5,0 4.244792,-0.91146 0.9375,-0.49479 2.630208,-1.97917 -0.833333,-6.90104 -0.833333,-10.33854 z"
       style="font-style:normal;font-variant:normal;font-weight:normal;font-stretch:normal;font-size:53.33333588px;font-family:'Comic Sans MS';-inkscape-font-specification:'Comic Sans MS';fill:#ff9900;fill-opacity:1;stroke-width:5"
       id="path4746" />
    <path
       d="m 98.72396,355.6234 -9.010417,19.47917 q -3.333333,7.10937 -5.104167,11.90104 l -1.71875,5.05209 q -0.677083,1.875 -2.34375,1.875 -1.09375,0 -1.901042,-0.72917 -0.78125,-0.70313 -0.78125,-1.77083 0,-2.60417 5.625,-15.07813 l -9.322917,-17.94271 -1.171875,-1.90104 q -0.703125,-1.19792 -0.703125,-2.00521 0,-1.06771 0.807292,-1.875 0.833333,-0.80729 1.848958,-0.80729 1.197917,0 1.848959,0.91146 4.427083,6.14583 9.505209,17.5 l 3.854166,-8.98438 q 2.083334,-4.66146 4.010417,-8.02083 0.833334,-1.45834 2.1875,-1.45834 1.067709,0 1.875001,0.75521 0.833333,0.75521 0.833333,1.79688 0,0.57292 -0.338542,1.30208 z"
       style="font-style:normal;font-variant:normal;font-weight:normal;font-stretch:normal;font-size:53.33333588px;font-family:'Comic Sans MS';-inkscape-font-specification:'Comic Sans MS';fill:#ff9900;fill-opacity:1;stroke-width:5"
       id="path4748" />
    <path
       d="m 140.33854,373.07132 q 0,1.25 -0.41666,4.16667 -0.41667,2.6302 -2.78646,2.6302 -1.43229,0 -3.41146,-1.875 Q 123.125,367.96715 109.40104,349.0609 l -0.13021,5.91146 -0.0781,5.9375 q 0,2.16146 0.0781,6.48438 0.10417,4.32291 0.10417,6.51041 0,7.00521 -2.70833,7.00521 -1.43229,0 -2.26563,-0.91146 -0.75521,-0.80729 -0.75521,-1.92708 0,-1.09375 0.15625,-3.30729 0.1823,-2.21354 0.1823,-3.30729 0,-1.61459 0.10416,-4.81771 0.10417,-3.22917 0.10417,-4.84375 0,-1.71875 -0.0781,-5.18229 -0.0781,-3.48959 -0.0781,-5.20834 0,-1.64062 -0.3125,-4.86979 -0.3125,-3.25521 -0.3125,-4.89583 0,-1.19792 1.01562,-2.1875 1.04167,-0.98959 2.34375,-0.98959 1.38021,0 3.41146,3.02084 6.48438,9.71354 11.66667,16.14583 6.17188,7.63021 13.54167,14.58333 0.0781,-1.11979 0,-3.30729 l -0.0781,-3.28125 q 0,-11.43229 -0.88541,-18.20312 -0.10417,-0.67709 -0.70313,-2.73438 -0.52083,-1.77083 -0.52083,-2.76042 0,-3.02083 2.76041,-3.02083 4.53125,0 4.53125,16.90104 0,2.89063 -0.0781,8.64584 -0.0781,5.72916 -0.0781,8.61979 z"
       style="font-style:normal;font-variant:normal;font-weight:normal;font-stretch:normal;font-size:53.33333588px;font-family:'Comic Sans MS';-inkscape-font-specification:'Comic Sans MS';fill:#ff9900;fill-opacity:1;stroke-width:5"
       id="path4750" />
    <path
       d="m 156.09375,380.38903 q -4.375,0 -7.52604,-3.22917 -3.51563,-3.59375 -3.69792,-9.66146 -0.15625,-5.88541 2.96875,-10.36458 3.64584,-5.28646 10.15625,-5.28646 5.20834,0 7.89063,4.76563 2.13542,3.85416 2.05729,9.27083 -0.0781,5.78125 -3.02083,9.86979 -3.33334,4.63542 -8.82813,4.63542 z m 1.5625,-23.25521 q -3.82812,-0.026 -5.96354,3.64583 Q 150,363.72236 150,367.4984 q 0,3.77604 2.05729,5.88542 1.71875,1.74479 4.03646,1.74479 2.70833,0 4.66146,-1.97917 2.21354,-2.1875 2.34375,-5.91145 0.36458,-10.07813 -5.44271,-10.10417 z"
       style="font-style:normal;font-variant:normal;font-weight:normal;font-stretch:normal;font-size:53.33333588px;font-family:'Comic Sans MS';-inkscape-font-specification:'Comic Sans MS';fill:#ff9900;fill-opacity:1;stroke-width:5"
       id="path4752" />
    <path
       d="m 207.78647,381.35257 q -1.19792,0 -2.10937,-0.67708 -1.04167,-0.78125 -1.04167,-1.92709 -1.19792,-3.15104 -1.51042,-5.13021 -0.3125,-1.97916 -2.05729,-11.22395 -1.32812,-7.00521 -1.77083,-11.25001 -2.31771,8.59376 -4.97396,14.5573 -3.07292,6.90104 -3.98438,10.80729 0.3125,0.59896 0.3125,1.17187 0,1.17188 -1.04166,1.92709 -0.9375,0.70312 -2.13542,0.70312 -3.51563,0 -3.51563,-3.15104 l -0.80729,-3.30729 -2.83854,-12.76042 q -1.69271,-6.45833 -5.78125,-18.51562 -0.18229,-0.57292 -0.18229,-1.04167 0,-2.42188 2.73437,-2.42188 1.69271,0 2.60417,1.84896 0.46875,0.9375 1.90104,5.39063 1.53646,4.71354 3.07292,11.35417 l 2.52604,11.51041 q 2.78646,-6.45833 5.54688,-15.72916 1.69271,-5.65105 2.57812,-7.83855 2.34375,-5.75521 4.55729,-5.75521 1.82292,0 2.57813,1.84896 0.9375,2.23959 1.90104,10.67709 0.52083,4.27083 1.77083,10.26041 l 2.23959,10.23438 q 3.48958,-8.38542 8.72396,-22.68229 0.28645,-0.78125 1.30208,-4.92188 0.75521,-3.04687 1.84896,-4.73958 0.9375,-1.43229 2.44791,-1.43229 2.63021,0 2.63021,2.60416 0,0.44271 -0.83333,2.60417 l -1.04167,2.8125 -1.43229,4.63542 -7.73437,18.80208 q -1.06771,3.09896 -3.67188,9.01042 -0.9375,1.74479 -2.8125,1.74479 z"
       style="font-style:normal;font-variant:normal;font-weight:normal;font-stretch:normal;font-size:53.33333588px;font-family:'Comic Sans MS';-inkscape-font-specification:'Comic Sans MS';fill:#ff9900;fill-opacity:1;stroke-width:5"
       id="path4754" />
    <path
       d="m 250.10417,380.57132 q -0.49479,0 -1.79688,-1.14583 -1.17187,-1.06771 -1.74479,-1.90105 -2.5,1.35417 -4.40104,2.03125 -1.90104,0.70313 -3.17708,0.70313 -6.09375,0 -8.88021,-3.4375 -2.63021,-3.22917 -2.63021,-9.89583 0,-6.30209 4.32292,-10.78125 4.34895,-4.47917 10.36458,-4.47917 2.26562,0 5.07812,1.17187 3.54167,1.45834 3.54167,3.51563 0,0.70312 -0.52083,1.25 -0.26042,0.98958 -0.41667,3.25521 -0.13021,2.26562 -0.15625,5.80729 -0.026,3.22917 0.44271,5.10417 0.26042,1.14583 1.64063,4.58333 0.18229,0.46875 0.59895,1.38021 l 0.15625,0.44271 q 0,1.04166 -0.72916,1.71875 -0.72917,0.67708 -1.69271,0.67708 z m -5.41667,-18.09896 q 0,-1.11979 0.13021,-2.42187 0.15625,-1.32813 0.44271,-2.8125 -0.96354,-0.4948 -1.66667,-0.72917 -0.67708,-0.23438 -1.09375,-0.23438 -4.03646,0 -6.97917,3.3073 -2.91666,3.28125 -2.91666,7.57812 0,4.27083 1.51041,6.40625 1.51042,2.13542 4.53125,2.13542 2.5,0 4.2448,-0.91146 0.9375,-0.49479 2.6302,-1.97917 -0.83333,-6.90104 -0.83333,-10.33854 z"
       style="font-style:normal;font-variant:normal;font-weight:normal;font-stretch:normal;font-size:53.33333588px;font-family:'Comic Sans MS';-inkscape-font-specification:'Comic Sans MS';fill:#ff9900;fill-opacity:1;stroke-width:5"
       id="path4756" />
    <path
       d="m 279.76563,355.6234 -9.01042,19.47917 q -3.33333,7.10937 -5.10416,11.90104 l -1.71875,5.05209 q -0.67709,1.875 -2.34375,1.875 -1.09375,0 -1.90104,-0.72917 -0.78125,-0.70313 -0.78125,-1.77083 0,-2.60417 5.625,-15.07813 l -9.32292,-17.94271 -1.17188,-1.90104 q -0.70312,-1.19792 -0.70312,-2.00521 0,-1.06771 0.80729,-1.875 0.83333,-0.80729 1.84896,-0.80729 1.19792,0 1.84896,0.91146 4.42708,6.14583 9.50521,17.5 l 3.85416,-8.98438 q 2.08334,-4.66146 4.01042,-8.02083 0.83333,-1.45834 2.1875,-1.45834 1.06771,0 1.875,0.75521 0.83333,0.75521 0.83333,1.79688 0,0.57292 -0.33854,1.30208 z"
       style="font-style:normal;font-variant:normal;font-weight:normal;font-stretch:normal;font-size:53.33333588px;font-family:'Comic Sans MS';-inkscape-font-specification:'Comic Sans MS';fill:#ff9900;fill-opacity:1;stroke-width:5"
       id="path4758" />
  </g>
</svg>
