<?xml version="1.0" encoding="UTF-8" standalone="no"?>
<svg
   xmlns:dc="http://purl.org/dc/elements/1.1/"
   xmlns:cc="http://creativecommons.org/ns#"
   xmlns:rdf="http://www.w3.org/1999/02/22-rdf-syntax-ns#"
   xmlns:svg="http://www.w3.org/2000/svg"
   xmlns="http://www.w3.org/2000/svg"
   xml:space="preserve"
   width="270.00101"
   viewBox="0 0 270.00101 270"
   version="1.1"
   id="Layer_1"
   height="270"
   enable-background="new 0 0 300 300"><defs
     id="defs17" /><g
     transform="translate(-15.843,-14.8)"
     id="g12"><path
       style="fill:#344d5d"
       id="path2"
       d="m 150.845,14.8 c -74.562,0 -135.002,60.443 -135.002,135.004 0,74.553 60.44,134.996 135.002,134.996 74.558,0 134.999,-60.443 134.999,-134.996 C 285.844,75.243 225.403,14.8 150.845,14.8 Z m 0,250.914 c -64.018,0 -115.913,-51.901 -115.913,-115.91 0,-64.017 51.896,-115.91 115.913,-115.91 64.014,0 115.912,51.893 115.912,115.91 0,64.009 -51.898,115.91 -115.912,115.91 z" /><path
       style="fill:#344d5d"
       id="path4"
       d="m 255.271,149.804 c 0,57.676 -46.748,104.428 -104.425,104.428 -57.679,0 -104.431,-46.752 -104.431,-104.428 0,-57.676 46.752,-104.428 104.43,-104.428 57.677,0 104.426,46.752 104.426,104.428 z" /><g
       id="g10"><path
         style="fill:#ffffff"
         id="path6"
         d="m 81.834,161.005 c 0,-33.187 28.716,-60.611 66.023,-65.079 l -5.348,-24.06 49.862,25.64 -32.814,51.083 -7.127,-32.113 c -31.015,8.438 -53.5,33.268 -53.5,62.613 0,11.442 3.431,22.194 9.421,31.556 -16.213,-12.048 -26.517,-29.788 -26.517,-49.64 z" /><path
         style="fill:#ffffff"
         id="path8"
         d="m 153.304,203.642 5.158,24.1 -49.664,-26.032 33.22,-50.814 6.886,32.161 c 31.07,-8.193 53.75,-32.831 53.987,-62.184 0.084,-11.438 -3.257,-22.215 -9.177,-31.627 16.127,12.176 26.29,29.999 26.138,49.843 -0.273,33.178 -29.209,60.382 -66.548,64.553 z" /></g></g></svg>