<?xml version="1.0" encoding="UTF-8" standalone="no"?>
<svg
   xmlns:dc="http://purl.org/dc/elements/1.1/"
   xmlns:cc="http://creativecommons.org/ns#"
   xmlns:rdf="http://www.w3.org/1999/02/22-rdf-syntax-ns#"
   xmlns:svg="http://www.w3.org/2000/svg"
   xmlns="http://www.w3.org/2000/svg"
   height="36"
   viewBox="0 0 36 36"
   width="36"
   version="1.1"
   id="svg6">
  <defs
     id="defs10" />
  <path
     style="fill:none"
     d="M -6,-6 H 42 V 42 H -6 Z"
     id="path2" />
  <path
     d="M 0,4 H 4 V 0 C 1.79,0 0,1.79 0,4 Z M 0,20 H 4 V 16 H 0 Z m 8,16 h 4 V 32 H 8 Z M 0,12 H 4 V 8 H 0 Z M 20,0 h -4 v 4 h 4 z m 12,0 v 4 h 4 C 36,1.79 34.21,0 32,0 Z M 4,36 V 32 H 0 c 0,2.21 1.79,4 4,4 z M 0,28 H 4 V 24 H 0 Z M 12,0 H 8 v 4 h 4 z m 4,36 h 4 V 32 H 16 Z M 32,20 h 4 v -4 h -4 z m 0,16 c 2.21,0 4,-1.79 4,-4 h -4 z m 0,-24 h 4 V 8 h -4 z m 0,16 h 4 v -4 h -4 z m -8,8 h 4 V 32 H 24 Z M 24,4 h 4 V 0 H 24 Z M 8,28 H 28 V 8 H 8 Z M 12,12 H 24 V 24 H 12 Z"
     style="fill:#ccc"
     id="path4" />
</svg>
