<?xml version="1.0" encoding="UTF-8" standalone="no"?>
<svg
   xmlns:dc="http://purl.org/dc/elements/1.1/"
   xmlns:cc="http://creativecommons.org/ns#"
   xmlns:rdf="http://www.w3.org/1999/02/22-rdf-syntax-ns#"
   xmlns:svg="http://www.w3.org/2000/svg"
   xmlns="http://www.w3.org/2000/svg"
   xml:space="preserve"
   width="28.605152"
   viewBox="0 0 28.605152 27.74515"
   version="1.1"
   id="Layer_1"
   height="27.74515"
   enable-background="new 0 0 32 32"><defs
     id="defs15" /><g
     transform="translate(-1.126262,-2.1267475)"
     id="g10"><g
       id="g4"><path
         style="fill:rgba(255,255,255,0.4)"
         id="path2"
         d="m 1.911,16.179 c -1.084,0.568 -1.039,1.4 0.098,1.852 l 3.364,1.331 c 1.137,0.449 2.856,0.204 3.821,-0.55 L 23.806,7.289 C 24.767,6.532 24.87,6.644 24.035,7.538 L 12.483,19.902 c -0.837,0.892 -0.59,1.984 0.55,2.425 l 0.394,0.154 c 1.14,0.44 3,1.182 4.132,1.642 l 3.732,1.521 c 1.133,0.46 2.06,0.842 2.062,0.849 10e-4,0.007 0.006,0.028 0.012,0.03 0.006,0.002 0.273,-0.962 0.594,-2.141 L 29.647,3.474 C 29.968,2.294 29.345,1.793 28.262,2.361 Z" /></g><g
       id="g8"><path
         style="fill:rgba(255,255,255,0.4)"
         id="path6"
         d="m 11.146,29.864 c -0.067,0.199 2.301,-3.429 2.301,-3.429 0.669,-1.022 0.29,-2.241 -0.842,-2.703 l -2.582,-1.058 c -1.132,-0.463 -1.674,0.08 -1.205,1.212 0,0.001 2.396,5.774 2.328,5.978 z" /></g></g></svg>