<?xml version="1.0" encoding="UTF-8" standalone="no"?>
<svg
   xmlns:dc="http://purl.org/dc/elements/1.1/"
   xmlns:cc="http://creativecommons.org/ns#"
   xmlns:rdf="http://www.w3.org/1999/02/22-rdf-syntax-ns#"
   xmlns:svg="http://www.w3.org/2000/svg"
   xmlns="http://www.w3.org/2000/svg"
   xml:space="preserve"
   width="512"
   viewBox="0 0 512 512"
   version="1.1"
   id="Layer_1"
   height="512"
   enable-background="new 0 0 24 24"><defs
     id="defs15" /><g
     transform="scale(21.333333)"
     id="g10"><path
       id="path2"
       style="fill:rgba(255,0,0,0.8)"
       d="M 12,0 C 5.4,0 0,5.4 0,12 0,18.6 5.4,24 12,24 18.6,24 24,18.6 24,12 24,5.4 18.6,0 12,0 Z m 0,22 C 6.5,22 2,17.5 2,12 2,6.5 6.5,2 12,2 c 5.5,0 10,4.5 10,10 0,5.5 -4.5,10 -10,10 z" /><circle
       id="circle4"
       style="fill:rgba(255,0,0,0.8)"
       r="1.5"
       cy="9.5"
       cx="8.5" /><path
       style="fill:rgba(255,0,0,0.8)"
       id="path6"
       d="m 17.5,9 h -3 C 14.2,9 14,9.2 14,9.5 14,9.8 14.2,10 14.5,10 h 3 C 17.8,10 18,9.8 18,9.5 18,9.2 17.8,9 17.5,9 Z" /><path
       style="fill:rgba(255,0,0,0.8)"
       id="path8"
       d="m 12,18 v 1 c 3.3,0 6,-2.7 6,-6 h -1 c 0,2.8 -2.2,5 -5,5 z" /></g></svg>