<?xml version="1.0" encoding="UTF-8" standalone="no"?><svg xmlns:dc="http://purl.org/dc/elements/1.1/" xmlns:cc="http://creativecommons.org/ns#" xmlns:rdf="http://www.w3.org/1999/02/22-rdf-syntax-ns#" xmlns:svg="http://www.w3.org/2000/svg" xmlns="http://www.w3.org/2000/svg" height="22.00025" width="22.0005" id="svg8" xml:space="preserve" enable-background="new 0 0 24 24" viewBox="0 0 22.0005 22.00025" y="0px" x="0px" version="1.1"><path style="fill:#ccc" id="path2" d="m 21.70725,0.29325 c -0.391,-0.391 -1.023,-0.391 -1.414,0 l -4.393,4.393 c -1.354,-1.053 -3.051,-1.686 -4.9,-1.686 -4.418,0 -8,3.582 -8,8 0,1.849 0.633,3.546 1.686,4.9 l -4.393,4.393 c -0.391,0.391 -0.391,1.023 0,1.414 0.195,0.195 0.451,0.293 0.707,0.293 0.256,0 0.512,-0.098 0.707,-0.293 l 4.393,-4.393 c 1.355,1.053 3.051,1.686 4.9,1.686 4.418,0 8,-3.582 8,-8 0,-1.849 -0.633,-3.545 -1.686,-4.9 l 4.393,-4.393 c 0.391,-0.391 0.391,-1.023 0,-1.414 z m -16.707,10.707 c 0,-3.309 2.691,-6 6,-6 1.294,0 2.49,0.416 3.471,1.115 l -8.356,8.356 c -0.699,-0.981 -1.115,-2.177 -1.115,-3.471 z m 12,0 c 0,3.309 -2.691,6 -6,6 -1.294,0 -2.49,-0.416 -3.471,-1.115 l 8.356,-8.356 c 0.699,0.981 1.115,2.177 1.115,3.471 z"/></svg>