<?xml version="1.0" encoding="UTF-8" standalone="no"?><svg xmlns:dc="http://purl.org/dc/elements/1.1/" xmlns:cc="http://creativecommons.org/ns#" xmlns:rdf="http://www.w3.org/1999/02/22-rdf-syntax-ns#" xmlns:svg="http://www.w3.org/2000/svg" xmlns="http://www.w3.org/2000/svg" xml:space="preserve" viewBox="0 0 311.96601 544.48796" height="544.48798" width="311.966" y="0px" x="0px" id="Capa_1" version="1.1"><g style="fill:#222222;fill-opacity:1" transform="translate(-116.262)" id="g34"><g style="fill:#222222;fill-opacity:1" id="g32"><circle style="fill:#222222;fill-opacity:1" id="circle2" r="1.6059999" cy="23.18" cx="243.92"/><circle style="fill:#222222;fill-opacity:1" id="circle4" r="1.6059999" cy="23.18" cx="248.616"/><circle style="fill:#222222;fill-opacity:1" id="circle6" r="1.6059999" cy="23.18" cx="253.30099"/><circle style="fill:#222222;fill-opacity:1" id="circle8" r="1.6059999" cy="23.18" cx="257.987"/><circle style="fill:#222222;fill-opacity:1" id="circle10" r="1.6059999" cy="23.18" cx="262.68201"/><circle style="fill:#222222;fill-opacity:1" id="circle12" r="1.6059999" cy="23.18" cx="267.37701"/><circle style="fill:#222222;fill-opacity:1" id="circle14" r="1.6059999" cy="23.18" cx="272.06299"/><circle style="fill:#222222;fill-opacity:1" id="circle16" r="1.6059999" cy="23.18" cx="276.74899"/><circle style="fill:#222222;fill-opacity:1" id="circle18" r="1.6059999" cy="23.18" cx="281.43399"/><circle style="fill:#222222;fill-opacity:1" id="circle20" r="1.6059999" cy="23.18" cx="286.14899"/><circle style="fill:#222222;fill-opacity:1" id="circle22" r="1.6059999" cy="23.18" cx="290.83401"/><circle style="fill:#222222;fill-opacity:1" id="circle24" r="1.6059999" cy="23.18" cx="295.51999"/><circle style="fill:#222222;fill-opacity:1" id="circle26" r="1.6059999" cy="23.18" cx="300.20599"/><circle style="fill:#222222;fill-opacity:1" id="circle28" r="1.6059999" cy="23.18" cx="304.901"/><path style="fill:#222222;fill-opacity:1" id="path30" d="M 392.923,0 H 151.576 c -19.508,0 -35.314,15.807 -35.314,35.314 v 473.86 c 0,19.507 15.807,35.314 35.314,35.314 h 241.338 c 19.508,0 35.314,-15.808 35.314,-35.314 V 35.314 C 428.238,15.807 412.431,0 392.923,0 Z m -24.69,20.971 c 2.151,0 3.901,1.75 3.901,3.901 0,2.161 -1.759,3.901 -3.901,3.901 -2.161,0 -3.901,-1.75 -3.901,-3.901 -0.01,-2.151 1.74,-3.901 3.901,-3.901 z M 230.476,17.604 h 87.219 c 3.089,0 5.575,2.496 5.575,5.565 0,3.079 -2.486,5.565 -5.575,5.565 h -87.219 c -3.089,0 -5.575,-2.496 -5.575,-5.565 0.01,-3.068 2.486,-5.565 5.575,-5.565 z m -35.582,503.658 h -8.587 c -0.574,0 -1.033,-0.469 -1.033,-1.043 0,-0.563 0.459,-1.042 1.033,-1.042 h 8.587 c 0.583,0 1.042,0.479 1.042,1.042 -0.01,0.574 -0.469,1.043 -1.042,1.043 z m 0,-4.189 h -8.587 c -0.574,0 -1.033,-0.459 -1.033,-1.033 0,-0.573 0.459,-1.042 1.033,-1.042 h 8.587 c 0.583,0 1.042,0.469 1.042,1.042 -0.01,0.574 -0.469,1.033 -1.042,1.033 z m 7.229,2.725 c 0,1.234 -0.995,2.238 -2.228,2.238 -1.234,0 -2.238,-1.004 -2.238,-2.238 v -7.372 h -14.124 v 7.372 c 0,1.234 -0.994,2.238 -2.228,2.238 -1.233,0 -2.237,-1.004 -2.237,-2.238 v -9.601 c 0,-1.233 1.004,-2.237 2.237,-2.237 h 18.59 c 1.233,0 2.228,1.004 2.228,2.237 z m 98.083,-0.688 c 0,4.876 -3.959,8.826 -8.836,8.826 h -38.623 c -4.887,0 -8.836,-3.95 -8.836,-8.826 v -7.727 c 0,-4.877 3.949,-8.826 8.836,-8.826 h 38.623 c 4.877,0 8.836,3.949 8.836,8.826 z m 57.652,3.347 h -7.01 c -1.233,0 -2.228,-1.004 -2.228,-2.238 0,-1.233 0.994,-2.228 2.228,-2.228 h 7.01 c 1.511,0 2.734,-1.177 2.734,-2.62 0,-1.444 -1.224,-2.61 -2.734,-2.61 h -5.91 c -0.22,0.306 -0.497,0.459 -0.994,0.497 -0.124,0.066 -0.335,-0.029 -0.487,-0.096 l -3.644,-1.54 c -0.44,-0.191 -0.736,-0.621 -0.736,-1.1 0,-0.478 0.287,-0.918 0.727,-1.1 l 3.644,-1.539 c 0.439,-0.191 0.966,-0.086 1.31,0.258 0.048,0.048 0.096,0.096 0.134,0.153 h 5.958 c 3.969,0 7.19,3.184 7.19,7.086 -0.002,3.902 -3.223,7.077 -7.192,7.077 z m 46.827,-30.944 H 136.859 V 54.449 h 267.826 z"/></g></g><g transform="translate(-116.262)" id="g36"></g><g transform="translate(-116.262)" id="g38"></g><g transform="translate(-116.262)" id="g40"></g><g transform="translate(-116.262)" id="g42"></g><g transform="translate(-116.262)" id="g44"></g><g transform="translate(-116.262)" id="g46"></g><g transform="translate(-116.262)" id="g48"></g><g transform="translate(-116.262)" id="g50"></g><g transform="translate(-116.262)" id="g52"></g><g transform="translate(-116.262)" id="g54"></g><g transform="translate(-116.262)" id="g56"></g><g transform="translate(-116.262)" id="g58"></g><g transform="translate(-116.262)" id="g60"></g><g transform="translate(-116.262)" id="g62"></g><g transform="translate(-116.262)" id="g64"></g></svg>