<?xml version="1.0" encoding="UTF-8" standalone="no"?><svg xmlns:dc="http://purl.org/dc/elements/1.1/" xmlns:cc="http://creativecommons.org/ns#" xmlns:rdf="http://www.w3.org/1999/02/22-rdf-syntax-ns#" xmlns:svg="http://www.w3.org/2000/svg" xmlns="http://www.w3.org/2000/svg" height="511.99896" width="464.901" xml:space="preserve" viewBox="0 0 464.90101 511.99897" y="0px" x="0px" id="Layer_1" version="1.1"><g transform="translate(-23.549,-9.0963774e-5)" id="g8"><path id="path2" d="M 382.369,175.623 C 322.891,142.356 227.427,88.937 79.355,6.028 69.372,-0.565 57.886,-1.429 47.962,1.93 l 254.05,254.05 z" style="fill:#32bbff"/><path id="path4" d="M 47.962,1.93 C 46.102,2.56 44.292,3.32 42.561,4.238 31.602,10.166 23.549,21.573 23.549,36 v 439.96 c 0,14.427 8.052,25.834 19.012,31.761 1.728,0.917 3.537,1.68 5.395,2.314 L 302.012,255.98 Z" style="fill:#32bbff"/><path id="path6" d="M 302.012,255.98 47.956,510.035 c 9.927,3.384 21.413,2.586 31.399,-4.103 143.598,-80.41 237.986,-133.196 298.152,-166.746 1.675,-0.941 3.316,-1.861 4.938,-2.772 z" style="fill:#32bbff"/></g><path id="path10" d="m 0,255.97991 v 219.98 c 0,14.427 8.052,25.834 19.012,31.761 1.728,0.917 3.537,1.68 5.395,2.314 l 254.056,-254.055 z" style="fill:#2c9fd9"/><path id="path12" d="m 55.806,6.027909 c -11.855,-7.828 -25.835,-7.605 -36.794,-1.789 l 255.595,255.596001 84.212,-84.212 C 299.342,142.35591 203.878,88.936909 55.806,6.027909 Z" style="fill:#29cc5e"/><path id="path14" d="m 274.609,252.12591 -255.597,255.595 c 10.96,5.815 24.939,6.151 36.794,-1.789 143.598,-80.41 237.986,-133.196 298.152,-166.746 1.675,-0.941 3.316,-1.861 4.938,-2.772 z" style="fill:#d93f21"/><path id="path16" d="m 464.901,255.97991 c 0,-12.19 -6.151,-24.492 -18.342,-31.314 0,0 -22.799,-12.721 -92.682,-51.809 l -83.123,83.123 83.204,83.205 c 69.116,-38.807 92.6,-51.892 92.6,-51.892 12.192,-6.821 18.343,-19.123 18.343,-31.313 z" style="fill:#ffd500"/><path id="path18" d="m 446.559,287.29391 c 12.191,-6.822 18.342,-19.124 18.342,-31.314 H 270.754 l 83.204,83.205 c 69.117,-38.806 92.601,-51.891 92.601,-51.891 z" style="fill:#ffaa00"/><g transform="translate(-23.549,-9.0963774e-5)" id="g20"></g><g transform="translate(-23.549,-9.0963774e-5)" id="g22"></g><g transform="translate(-23.549,-9.0963774e-5)" id="g24"></g><g transform="translate(-23.549,-9.0963774e-5)" id="g26"></g><g transform="translate(-23.549,-9.0963774e-5)" id="g28"></g><g transform="translate(-23.549,-9.0963774e-5)" id="g30"></g><g transform="translate(-23.549,-9.0963774e-5)" id="g32"></g><g transform="translate(-23.549,-9.0963774e-5)" id="g34"></g><g transform="translate(-23.549,-9.0963774e-5)" id="g36"></g><g transform="translate(-23.549,-9.0963774e-5)" id="g38"></g><g transform="translate(-23.549,-9.0963774e-5)" id="g40"></g><g transform="translate(-23.549,-9.0963774e-5)" id="g42"></g><g transform="translate(-23.549,-9.0963774e-5)" id="g44"></g><g transform="translate(-23.549,-9.0963774e-5)" id="g46"></g><g transform="translate(-23.549,-9.0963774e-5)" id="g48"></g></svg>