<?xml version="1.0" encoding="UTF-8" standalone="no"?>
<svg
   xmlns:dc="http://purl.org/dc/elements/1.1/"
   xmlns:cc="http://creativecommons.org/ns#"
   xmlns:rdf="http://www.w3.org/1999/02/22-rdf-syntax-ns#"
   xmlns:svg="http://www.w3.org/2000/svg"
   xmlns="http://www.w3.org/2000/svg"
   xml:space="preserve"
   width="335.90125"
   viewBox="0 0 335.90125 448.20001"
   version="1.1"
   id="Layer_1"
   height="448.20001"><defs
     id="defs11" /><g
     transform="translate(-87.89938,-32)"
     id="g6"><path
       id="path2"
       style="fill:#666"
       d="m 309.1,96.8 -2.4,-0.7 c -3.7,-1 -7.5,-2 -11.8,-2.9 -1.7,-0.4 -3.5,-0.7 -5.3,-1.1 -2.8,-0.5 -5.6,-0.9 -8.5,-1.2 -2.6,-0.4 -5.3,-0.7 -7.9,-0.9 l -0.1,-58 -102.9,90 103.3,89.6 -0.2,-63.4 c 0.8,0.1 1.6,0.1 2.3,0.3 2.9,0.4 5.8,1 8.6,1.6 4.1,1 8,2.1 11.8,3.5 2.2,0.8 4.4,1.6 6.5,2.5 4.3,1.9 8.5,4.1 12.6,6.6 l 1.2,0.7 c 1,0.6 2,1.2 3,1.8 4.3,2.9 8.4,6.2 12.5,10 l 1.1,0.9 c 0.5,0.4 0.9,0.8 1.3,1.1 4,4 7.7,8.3 11.1,13.1 l 0.7,0.8 c 0.3,0.3 0.5,0.6 0.8,1 2.9,4.2 5.7,9.1 8.4,14.9 0.2,0.4 0.4,0.8 0.6,1.2 0.2,0.3 0.4,0.7 0.5,1.1 2,4.5 3.6,9.6 5.2,16 0.1,0.5 0.3,1.1 0.5,1.6 0.1,0.4 0.3,0.8 0.4,1.4 1.4,6.5 2.1,13.3 2.1,20.2 0.1,21.8 -6.9,42.7 -20.3,60.3 l -5.5,7.2 43.4,39.2 7,-8.6 c 22.8,-28.4 34.8,-62.3 34.7,-98.3 0,-69.9 -46.2,-130.8 -114.7,-151.5 z" /><path
       id="path4"
       style="fill:#666"
       d="m 238.7,363.9 c -0.8,-0.1 -1.6,-0.1 -2.4,-0.3 -2.9,-0.4 -5.8,-1 -8.6,-1.6 -3.9,-0.9 -7.8,-2.1 -11.8,-3.5 -2.2,-0.8 -4.4,-1.6 -6.5,-2.5 -4.2,-1.9 -8.4,-4.1 -12.6,-6.6 l -1.4,-0.8 c -0.9,-0.6 -1.9,-1.1 -2.8,-1.7 -4.3,-2.9 -8.4,-6.2 -12.5,-10 L 179,336 c -0.5,-0.4 -0.9,-0.8 -1.3,-1.1 -3.9,-3.8 -7.5,-8.1 -11.1,-13 -0.2,-0.3 -0.5,-0.7 -0.8,-1 -0.2,-0.3 -0.5,-0.5 -0.7,-0.9 -3,-4.3 -5.7,-9.2 -8.4,-14.9 -0.2,-0.5 -0.5,-1 -0.7,-1.4 -0.2,-0.3 -0.4,-0.6 -0.5,-0.9 -1.9,-4.4 -3.6,-9.4 -5.2,-16 -0.1,-0.6 -0.3,-1.1 -0.5,-1.6 -0.1,-0.4 -0.3,-0.8 -0.4,-1.4 -1.4,-6.5 -2.1,-13.2 -2.2,-20.1 -0.1,-21.9 7,-42.7 20.3,-60.3 l 5.5,-7.2 -43.4,-39.2 -7,8.6 c -22.8,28.3 -34.8,62.3 -34.7,98.3 0.1,69.9 46.3,130.8 114.9,151.5 l 2.4,0.7 c 3.7,1 7.5,2 11.8,2.9 1.7,0.4 3.5,0.8 5.3,1.1 2.8,0.5 5.7,0.9 8.5,1.2 2.7,0.4 5.3,0.6 7.9,0.9 l 0.1,58 102.9,-90 -103.3,-89.6 z" /></g></svg>